<?xml version="1.0" encoding="utf-8"?>
<!-- Generator: Adobe Illustrator 21.1.0, SVG Export Plug-In . SVG Version: 6.00 Build 0)  -->
<svg version="1.1" id="Layer_1" xmlns="http://www.w3.org/2000/svg" xmlns:xlink="http://www.w3.org/1999/xlink" x="0px" y="0px"
	 viewBox="0 0 24.7 17.8" style="enable-background:new 0 0 24.7 17.8;" xml:space="preserve">
<style type="text/css">
	.st0{display:none;}
	.st1{display:inline;fill:none;stroke:#969696;stroke-width:0.5;stroke-miterlimit:10;}
	.st2{display:inline;}
	.st3{fill:none;stroke:#969696;stroke-width:0.5;stroke-miterlimit:10;}
	.st4{fill:#FFFFFF;}
</style>
<g id="Layer_1_1_" class="st0">
	<rect x="13.5" y="96.6" class="st1" width="51.2" height="17.1"/>
	<g class="st2">
		<circle class="st3" cx="67.1" cy="52" r="38.1"/>
		<rect x="29.2" y="49.5" class="st3" width="18.9" height="81.1"/>
		<circle class="st3" cx="67" cy="52.5" r="18.6"/>
	</g>
	<g class="st2">
		<g>
			<circle class="st3" cx="156.2" cy="95" r="38.1"/>
			<rect x="118.2" y="92.5" class="st3" width="18.9" height="81.1"/>
		</g>
		<circle class="st3" cx="156.2" cy="95.3" r="18.6"/>
	</g>
</g>
<path class="st4" d="M17.9,9.4c0,0.5,0,1.2,0,1.7c0,0.3,0.3,0.6,0.6,0.7c1.1,0.1,3.4,0,5.1-2.2c2.2-3,0.7-8.2-3.6-8.9
	c-4.5-0.7-6.3,2.8-6.4,5.1V17c0,0.4,0.3,0.7,0.7,0.7h1.5c0.4,0,0.7-0.3,0.7-0.7V6.3c0-0.4,0.1-0.8,0.3-1.2c0.3-0.7,1-1.5,2.3-1.5
	c1.8,0,2.7,1,2.8,2.6c0.1,1.5-1,3.1-3.2,2.8C18.2,8.8,17.9,9,17.9,9.4z"/>
<path class="st4" d="M12.3,8.9h-1.1V5.7c0-2.3-1.8-5.8-6.3-5.1C1.2,1.2-0.5,4.9,0.4,7.9C0.5,8.3,1,8.5,1.3,8.3l1.4-0.8
	C2.9,7.3,3.1,7.1,3,6.8c0-0.2,0-0.4,0-0.7c0.1-1.6,1-2.6,2.8-2.6c1.4,0,2,0.8,2.3,1.5c0.2,0.4,0.3,0.8,0.3,1.2v2.6H5.6
	c-0.5,0-0.8,0.4-0.8,0.8v1.1c0,0.4,0.4,0.8,0.9,0.8h2.8V17c0,0.4,0.3,0.6,0.6,0.6h1.5c0.4,0,0.6-0.3,0.6-0.6v-5.3h1.1
	c0.5,0,0.8-0.4,0.8-0.8V9.7C13.1,9.3,12.8,8.9,12.3,8.9z"/>
</svg>
